<svg t="1606800991074" class="icon" viewBox="0 0 1024 1024" version="1.1" xmlns="http://www.w3.org/2000/svg" p-id="42238" width="200" height="200" fill="#007aff"><path d="M1024 307.2H0V204.8c0-56.6 45.8-102.4 102.4-102.4h819.2c56.6 0 102.4 45.8 102.4 102.4v102.4z m0 51.2v460.8c0 56.6-45.8 102.4-102.4 102.4H102.4C45.8 921.6 0 875.8 0 819.2V358.4h1024z m-921.6 128c0 14.1 11.5 25.6 25.6 25.6h256c14.1 0 25.6-11.5 25.6-25.6s-11.5-25.6-25.6-25.6H128c-14.1 0-25.6 11.5-25.6 25.6z m0 153.6c0 14.1 11.5 25.6 25.6 25.6h256c14.1 0 25.6-11.5 25.6-25.6s-11.5-25.6-25.6-25.6H128c-14.1 0-25.6 11.5-25.6 25.6z m0 153.6c0 14.1 11.5 25.6 25.6 25.6h256c14.1 0 25.6-11.5 25.6-25.6S398.1 768 384 768H128c-14.1 0-25.6 11.5-25.6 25.6z" p-id="42239"></path></svg>