<svg t="1606794782390" class="icon" viewBox="0 0 1024 1024" version="1.1" xmlns="http://www.w3.org/2000/svg" p-id="16627" width="200" height="200"><path d="M146.285714 0h731.428572a146.285714 146.285714 0 0 1 146.285714 146.285714v731.428572a146.285714 146.285714 0 0 1-146.285714 146.285714H146.285714a146.285714 146.285714 0 0 1-146.285714-146.285714V146.285714a146.285714 146.285714 0 0 1 146.285714-146.285714z" fill="#007aff" p-id="16628"></path><path d="M255.707429 512.585143A256.585143 256.585143 0 0 1 512 256.292571a256.585143 256.585143 0 0 1 256.292571 256.292572A256.585143 256.585143 0 0 1 512 768.804571a256.585143 256.585143 0 0 1-256.292571-256.219428z" fill="#FFFFFF" p-id="16629"></path><path d="M512 347.428571a164.571429 164.571429 0 1 0 0 329.142858 164.571429 164.571429 0 0 0 0-329.142858" fill="#007aff" p-id="16630"></path></svg>