<svg t="1606800312567" class="icon" viewBox="0 0 1024 1024" version="1.1" xmlns="http://www.w3.org/2000/svg" p-id="30849" width="200" height="200" fill="#007aff"><path d="M757.333333 128A138.666667 138.666667 0 0 1 896 266.666667v490.666666A138.666667 138.666667 0 0 1 757.333333 896H266.666667A138.666667 138.666667 0 0 1 128 757.333333V266.666667A138.666667 138.666667 0 0 1 266.666667 128h490.666666z m74.666667 234.666667h-640v394.666666c0 41.216 33.450667 74.666667 74.666667 74.666667h490.666666a74.666667 74.666667 0 0 0 74.666667-74.666667V362.666667z m-234.88 72.32c28.458667 0 51.029333 7.594667 67.712 22.698666 16.64 15.146667 25.002667 35.626667 25.002667 61.482667 0 14.848-3.84 28.074667-11.477334 39.68a79.445333 79.445333 0 0 1-31.232 27.392c15.829333 7.381333 28.032 17.450667 36.565334 30.208 8.533333 12.8 12.8 27.221333 12.8 43.349333 0 26.666667-9.002667 47.786667-27.093334 63.445334-18.048 15.616-42.069333 23.424-72.064 23.424-30.122667 0-54.272-7.850667-72.405333-23.552-18.133333-15.701333-27.178667-36.778667-27.178667-63.317334 0-16.256 4.266667-30.848 12.928-43.776 8.618667-12.885333 20.693333-22.826667 36.266667-29.781333a78.976 78.976 0 0 1-30.976-27.392 70.997333 70.997333 0 0 1-11.349333-39.68c0-25.813333 8.362667-46.336 25.002666-61.44 16.64-15.146667 39.168-22.741333 67.498667-22.741333z m-161.066667 3.157333v304.341333H385.621333v-243.541333l-74.368 25.429333v-42.666666l118.314667-43.562667h6.485333z m160.853334 168.96c-14.72 0-26.453333 4.565333-35.285334 13.738667-8.832 9.173333-13.226667 21.333333-13.226666 36.437333 0 14.890667 4.309333 26.752 13.013333 35.626667 8.661333 8.917333 20.650667 13.354667 35.925333 13.354666s27.178667-4.309333 35.712-12.928c8.533333-8.618667 12.8-20.608 12.8-36.053333 0-14.976-4.437333-27.093333-13.397333-36.352-8.96-9.216-20.821333-13.866667-35.541333-13.866667z m0.213333-131.456c-12.928 0-23.125333 4.053333-30.634667 12.16-7.466667 8.106667-11.221333 19.2-11.221333 33.237333 0 13.866667 3.754667 24.917333 11.349333 33.109334 7.552 8.192 17.792 12.288 30.72 12.288s23.168-4.096 30.72-12.288c7.594667-8.192 11.349333-19.2 11.349334-33.109334 0-13.226667-3.84-24.064-11.434667-32.597333-7.68-8.533333-17.92-12.8-30.848-12.8zM757.333333 192H266.666667A74.666667 74.666667 0 0 0 192 266.666667V298.666667h640v-32a74.666667 74.666667 0 0 0-74.666667-74.666667z" p-id="30850"></path></svg>