<svg t="1606794230047" class="icon" viewBox="0 0 1024 1024" version="1.1" xmlns="http://www.w3.org/2000/svg" p-id="5981" width="200" height="200"><path d="M569.53 256.11h-50.22a15.11 15.11 0 0 0-15.25 15v50.8a15.11 15.11 0 0 0 15.25 15h50.22a15.11 15.11 0 0 0 15.25-15v-50.8a15.11 15.11 0 0 0-15.25-15z m0 161.6h-50.22a15.18 15.18 0 0 0-15.25 15.11v50.38a15.18 15.18 0 0 0 15.25 15.11h50.22a15.18 15.18 0 0 0 15.25-15.11v-50.38a15.19 15.19 0 0 0-15.25-15.11z m327.18 443.86h-49.46V633.09c0-41.16-37.06-74.52-78.8-74.52h-42.38V183.34c0-38-31.24-68.8-69.77-68.8H251c-38.52 0-69.77 30.81-69.77 68.8v678.23h-52c-16.06 0-29.07 5.26-29.07 21.1v-0.33c0 15.83 13 19.84 29.07 19.84h767.4c16.05 0 29.06-6.52 29.06-22.36v1.58c0-15.83-13-19.83-29.06-19.83zM665 850.79a11.55 11.55 0 0 1-11.62 11.47h-77.19a11.54 11.54 0 0 1-11.61-11.47v-99.08a11.54 11.54 0 0 1 11.61-11.47h77.14a11.54 11.54 0 0 1 11.62 11.47v99.08z m0-162a11.55 11.55 0 0 1-11.62 11.47h-77.19a11.54 11.54 0 0 1-11.61-11.47v-77.4c0-6.34 5.21-12.09 11.61-12.09h77.14a11.54 11.54 0 0 1 11.62 11.47v78z m20.7-130.18h-88c-41.74 0-73.06 33.37-73.06 74.52v228.44H221.52V200.75c0-25.33 20.83-45.86 46.5-45.86h371.12c25.69 0 46.51 20.53 46.51 45.86v357.82z m121.15 292.18a11.55 11.55 0 0 1-11.63 11.47h-77.76a11.54 11.54 0 0 1-11.63-11.47v-99.08a11.55 11.55 0 0 1 11.63-11.47h77.76a11.54 11.54 0 0 1 11.63 11.47v99.08z m0-162a11.55 11.55 0 0 1-11.63 11.47h-77.76a11.55 11.55 0 0 1-11.63-11.47v-78a11.55 11.55 0 0 1 11.63-11.47h77.76a11.54 11.54 0 0 1 11.63 11.47v78zM388 417.71h-50.63a15.14 15.14 0 0 0-15.16 15.11v50.38a15.14 15.14 0 0 0 15.16 15.11H388a15.14 15.14 0 0 0 15.16-15.11v-50.38A15.14 15.14 0 0 0 388 417.71z m0-161.6h-50.63a15.06 15.06 0 0 0-15.16 15v50.8a15.06 15.06 0 0 0 15.16 15H388a15.06 15.06 0 0 0 15.16-15v-50.8a15.06 15.06 0 0 0-15.16-15z m0 323.29h-50.63a15.06 15.06 0 0 0-15.16 15v50.8a15.06 15.06 0 0 0 15.16 15H388a15.06 15.06 0 0 0 15.16-15v-50.8a15.06 15.06 0 0 0-15.16-15z" fill="#007aff" p-id="5982"></path><path d="M896.71 904.17H129.3c-7.65 0-30.83 0-31.07-21.5v-0.33c0.16-14.68 11.18-22.77 31.07-22.77h50V183.34c0-39 32.19-70.8 71.77-70.8H656.3c39.57 0 71.77 31.76 71.77 70.8v373.23h40.38c43.8 0 80.8 35 80.8 76.52v226.48h47.46c7.49 0 29.91 0 31 20.24v1.58c-0.77 14.31-12.24 22.78-31 22.78z m-794.48-21.66c0.08 12.22 8.44 17.67 27.07 17.67h767.4c8 0 26.52-1.93 27.05-19.57-0.36-11.77-8.74-17-27.05-17h-51.45V633.09c0-39.31-35.17-72.52-76.8-72.52h-44.38V183.34c0-36.83-30.4-66.8-67.77-66.8H251c-37.37 0-67.77 30-67.77 66.8v680.23h-54c-17.81 0-26.92 6.37-27 18.94z m693-18.25h-77.77a13.57 13.57 0 0 1-13.63-13.47v-99.08a13.57 13.57 0 0 1 13.63-13.47h77.76a13.57 13.57 0 0 1 13.63 13.47v99.08a13.57 13.57 0 0 1-13.63 13.47z m-77.76-122a9.56 9.56 0 0 0-9.63 9.47v99.08a9.56 9.56 0 0 0 9.63 9.47h77.76a9.56 9.56 0 0 0 9.63-9.47v-99.1a9.56 9.56 0 0 0-9.63-9.47z m-64.12 122h-77.16a13.55 13.55 0 0 1-13.61-13.47v-99.08a13.56 13.56 0 0 1 13.61-13.47h77.14a13.56 13.56 0 0 1 13.62 13.47v99.08a13.56 13.56 0 0 1-13.62 13.47z m-77.15-122a9.55 9.55 0 0 0-9.61 9.47v99.08a9.55 9.55 0 0 0 9.61 9.47h77.15a9.57 9.57 0 0 0 9.61-9v-99.57a9.56 9.56 0 0 0-9.62-9.47z m-49.58 121.31h-307.1V200.75c0-26.39 21.76-47.86 48.5-47.86h371.12c26.75 0 48.51 21.47 48.51 47.86v357.82h-2v2h-88a69.89 69.89 0 0 0-50.75 21.22 73.22 73.22 0 0 0-20.31 51.3z m-303.1-4h299.1V633.09c0-42.91 33-76.52 75.06-76.52h86V200.75c0-24.19-20-43.86-44.51-43.86H268c-24.54 0-44.5 19.68-44.5 43.86z m571.7-157.36h-77.76a13.57 13.57 0 0 1-13.63-13.47v-78a13.57 13.57 0 0 1 13.63-13.47h77.76a13.57 13.57 0 0 1 13.63 13.47v78a13.57 13.57 0 0 1-13.63 13.47z m-77.76-101a9.56 9.56 0 0 0-9.63 9.47v78a9.56 9.56 0 0 0 9.63 9.47h77.76a9.56 9.56 0 0 0 9.63-9.47v-78a9.56 9.56 0 0 0-9.63-9.47z m-64.12 101h-77.15a13.56 13.56 0 0 1-13.61-13.47v-77.4c0-7.64 6.23-14.09 13.61-14.09h77.14a13.56 13.56 0 0 1 13.62 13.47v78a13.56 13.56 0 0 1-13.62 13.49z m-77.15-101c-5.12 0-9.61 4.72-9.61 10.09v77.4a9.55 9.55 0 0 0 9.61 9.47h77.15a9.57 9.57 0 0 0 9.61-9v-78.45a9.56 9.56 0 0 0-9.62-9.47zM388 662.09h-50.63a17.08 17.08 0 0 1-17.16-17v-50.8a17.08 17.08 0 0 1 17.16-17H388a17.08 17.08 0 0 1 17.16 17v50.8a17.08 17.08 0 0 1-17.16 17z m-50.59-80.7a13.07 13.07 0 0 0-13.16 13v50.8a13.07 13.07 0 0 0 13.16 13H388a13.07 13.07 0 0 0 13.16-13v-50.8a13.07 13.07 0 0 0-13.16-13z m232.17-81.08h-50.27a17.2 17.2 0 0 1-17.25-17.11v-50.38a17.2 17.2 0 0 1 17.25-17.11h50.22a17.22 17.22 0 0 1 17.25 17.11v50.38a17.2 17.2 0 0 1-17.25 17.11z m-50.22-80.6a13.2 13.2 0 0 0-13.25 13.11v50.38a13.2 13.2 0 0 0 13.25 13.11h50.22a13.2 13.2 0 0 0 13.25-13.11v-50.38a13.21 13.21 0 0 0-13.25-13.11zM388 500.31h-50.63a17.16 17.16 0 0 1-17.17-17.11v-50.38a17.16 17.16 0 0 1 17.16-17.11H388a17.16 17.16 0 0 1 17.16 17.11v50.38A17.16 17.16 0 0 1 388 500.31z m-50.59-80.6a13.15 13.15 0 0 0-13.16 13.11v50.38a13.15 13.15 0 0 0 13.16 13.11H388a13.15 13.15 0 0 0 13.16-13.11v-50.38A13.15 13.15 0 0 0 388 419.71z m232.17-80.9h-50.27a17.12 17.12 0 0 1-17.25-17v-50.8a17.12 17.12 0 0 1 17.25-17h50.22a17.14 17.14 0 0 1 17.25 16.95v50.8a17.12 17.12 0 0 1-17.25 17.05z m-50.22-80.7a13.12 13.12 0 0 0-13.25 13v50.8a13.12 13.12 0 0 0 13.25 13h50.22a13.12 13.12 0 0 0 13.25-13v-50.8a13.13 13.13 0 0 0-13.25-13zM388 338.81h-50.63a17.08 17.08 0 0 1-17.16-17v-50.8a17.08 17.08 0 0 1 17.16-17H388a17.08 17.08 0 0 1 17.16 17v50.8a17.08 17.08 0 0 1-17.16 17z m-50.59-80.7a13.07 13.07 0 0 0-13.16 13v50.8a13.07 13.07 0 0 0 13.16 13H388a13.07 13.07 0 0 0 13.16-13v-50.8a13.07 13.07 0 0 0-13.16-13z" fill="#007aff" p-id="5983"></path></svg>