<svg t="1606800767678" class="icon" viewBox="0 0 1024 1024" version="1.1" xmlns="http://www.w3.org/2000/svg" p-id="37659" width="200" height="200" fill="#007aff"><path d="M853.333333 896H170.666667c-46.933333 0-85.333333-38.4-85.333334-85.333333V213.333333c0-46.933333 38.4-85.333333 85.333334-85.333333h682.666666c46.933333 0 85.333333 38.4 85.333334 85.333333v597.333334c0 46.933333-38.4 85.333333-85.333334 85.333333z m-149.333333-260.266667c29.866667-4.266667 59.733333 8.533333 85.333333 29.866667 12.8 17.066667 21.333333 34.133333 21.333334 55.466667 0 29.866667-17.066667 59.733333-46.933334 72.533333l21.333334 17.066667H853.333333V213.333333h-51.2c4.266667 12.8 8.533333 29.866667 8.533334 46.933334-4.266667 25.6-12.8 46.933333-29.866667 68.266666L682.666667 439.466667h140.8v51.2h-221.866667v-42.666667s128-136.533333 136.533333-149.333333c8.533333-21.333333 12.8-46.933333 4.266667-68.266667-12.8-12.8-25.6-17.066667-38.4-17.066667-12.8 0-25.6 4.266667-34.133333 17.066667-8.533333 12.8-12.8 25.6-12.8 38.4h-64c0-21.333333 8.533333-38.4 17.066666-55.466667H554.666667v597.333334h110.933333v-38.4h42.666667c21.333333-4.266667 38.4-21.333333 38.4-42.666667 0-12.8-4.266667-21.333333-8.533334-29.866667-8.533333-8.533333-21.333333-12.8-29.866666-12.8 0 0-46.933333 0-46.933334 38.4H597.333333c0-17.066667 4.266667-29.866667 12.8-42.666666 21.333333-34.133333 55.466667-51.2 93.866667-46.933334z m-388.266667-200.533333V682.666667h64V358.4h-4.266666L238.933333 405.333333v51.2l76.8-21.333333z" p-id="37660"></path></svg>