<svg t="1606793988289" class="icon" viewBox="0 0 1024 1024" version="1.1" xmlns="http://www.w3.org/2000/svg" p-id="4297" data-spm-anchor-id="a313x.7781069.0.i7" width="200" height="200"><path d="M426.666667 512H256v85.333333h170.666667V512z m170.666666 0H512v85.333333h85.333333V512z m170.666667 0H682.666667v85.333333h85.333333V512zM426.666667 682.666667H298.666667v85.333333H426.666667V682.666667z m170.666666 0H512v85.333333h85.333333V682.666667z m170.666667 0H682.666667v85.333333h85.333333V682.666667z m85.333333-512V85.333333H768v85.333334H341.333333V85.333333H256v85.333334H170.666667c-47.36 0-84.906667 38.4-85.333334 85.333333v597.333333a85.333333 85.333333 0 0 0 85.333334 85.333334h682.666666c46.933333 0 85.333333-38.4 85.333334-85.333334V256c0-46.933333-38.4-85.333333-85.333334-85.333333z m0 682.666666H170.666667V341.333333h682.666666v512z" fill="#007aff" p-id="4298"></path></svg>