<svg t="1606794616818" class="icon" viewBox="0 0 1056 1024" version="1.1" xmlns="http://www.w3.org/2000/svg" p-id="14527" width="200" height="200"><path d="M928 768V128H288v64h512c35.2 0 64 28.8 64 64v640c0 35.2-28.8 64-64 64H160c-35.2 0-64-28.8-64-64V256c0-35.2 28.8-64 64-64h128V64h96-96v64h192c-19.2 0-32-12.8-32-32s12.8-32 32-32h-96 544c35.2 0 64 28.8 64 64v640c0 19.2-12.8 32-32 32s-32-12.8-32-32zM160 288v576c0 16 12.8 32 32 32h576c16 0 32-12.8 32-32V288c0-16-12.8-32-32-32H192c-16 0-32 12.8-32 32z m96 512c0-19.2 12.8-32 32-32h384c19.2 0 32 12.8 32 32s-12.8 32-32 32H288c-16 0-32-12.8-32-32z" fill="#007aff" fill-opacity="0" p-id="14528"></path><path d="M288 192h512c35.2 0 64 28.8 64 64v640c0 35.2-28.8 64-64 64H160c-35.2 0-64-28.8-64-64V256c0-35.2 28.8-64 64-64h128m192-64c-19.2 0-32-12.8-32-32s12.8-32 32-32h-96 544c35.2 0 64 28.8 64 64v640c0 19.2-12.8 32-32 32s-32-12.8-32-32V128M160 288v576c0 16 12.8 32 32 32h576c16 0 32-12.8 32-32V288c0-16-12.8-32-32-32H192c-16 0-32 12.8-32 32z m96 512c0-19.2 12.8-32 32-32h384c19.2 0 32 12.8 32 32s-12.8 32-32 32H288c-16 0-32-12.8-32-32z" fill="#007aff" p-id="14529"></path></svg>