<svg t="1607324763405" class="icon" viewBox="0 0 1024 1024" version="1.1" xmlns="http://www.w3.org/2000/svg" fill="#007aff" p-id="8569" width="200" height="200"><path d="M314.112 234.496c5.888 0 10.752 4.864 10.752 10.752v157.44c0 5.888-4.864 10.752-10.752 10.752H156.672c-5.888 0-10.752-4.864-10.752-10.752V245.248c0-5.888 4.864-10.752 10.752-10.752h157.44m0-76.8H156.672C108.288 157.696 69.12 197.12 69.12 245.248v157.44c0 48.384 39.424 87.552 87.552 87.552h157.44c48.384 0 87.552-39.424 87.552-87.552V245.248c0.256-48.384-39.168-87.552-87.552-87.552zM314.112 662.528c5.888 0 10.752 4.864 10.752 10.752v157.44c0 5.888-4.864 10.752-10.752 10.752H156.672c-5.888 0-10.752-4.864-10.752-10.752V673.28c0-5.888 4.864-10.752 10.752-10.752h157.44m0-76.8H156.672c-48.384 0-87.552 39.424-87.552 87.552v157.44c0 48.384 39.424 87.552 87.552 87.552h157.44c48.384 0 87.552-39.424 87.552-87.552V673.28c0.256-48.384-39.168-87.552-87.552-87.552zM890.624 259.584H517.376c-21.248 0-38.4-17.152-38.4-38.4s17.152-38.4 38.4-38.4h373.248c21.248 0 38.4 17.152 38.4 38.4s-17.152 38.4-38.4 38.4zM890.624 472.32H517.376c-21.248 0-38.4-17.152-38.4-38.4s17.152-38.4 38.4-38.4h373.248c21.248 0 38.4 17.152 38.4 38.4 0 20.992-17.152 38.4-38.4 38.4zM887.808 684.8H514.56c-21.248 0-38.4-17.152-38.4-38.4s17.152-38.4 38.4-38.4h373.248c21.248 0 38.4 17.152 38.4 38.4s-17.152 38.4-38.4 38.4zM887.808 897.536H514.56c-21.248 0-38.4-17.152-38.4-38.4s17.152-38.4 38.4-38.4h373.248c21.248 0 38.4 17.152 38.4 38.4s-17.152 38.4-38.4 38.4z" p-id="8570"></path></svg>