<svg t="1606801457762" class="icon" viewBox="0 0 1024 1024" version="1.1" xmlns="http://www.w3.org/2000/svg" p-id="53026" width="200" height="200"><path d="M355.66284729 541.05838198h52.73055322l-25.93528473-81.74367283-26.79526849 81.74367283z m2.69310537-129.24643236h49.04167758l73.57383137 207.75385202h-47.07276827l-13.39763392-42.70495835h-76.51587975l-14.39340362 42.70495835h-45.37543308l74.13960969-207.75385202z m265.96114072 66.08292479c0-10.7950533-2.85152365-18.48963993-8.53193919-23.08376168-5.68041553-4.61675232-13.64657635-6.92512821-23.87585127-6.92512819h-40.46447601v61.17196767h40.46447601c10.2292749 0 18.19543513-2.48942533 23.87585127-7.46827599 5.68041553-4.97885065 8.5319392-12.87711795 8.53193919-23.67217062z m42.99916312-0.27157358c0 24.53215437-6.22356333 41.86760636-18.62542703 52.00635594-12.40186369 10.16138138-30.09941401 15.23075617-53.1379133 15.23075616h-44.10808926v74.68275753h-43.13494964v-207.75385202h90.50192263c20.84327875 0 37.47716527 5.36357958 49.87902957 16.06810814 12.40186369 10.72715974 18.60279584 27.31578447 18.60279583 49.78850482z m72.28385693 141.94250081h-43.11231905v-207.75385202h43.11231905v207.75385201z m-599.09150061 191.45943203c-23.53638413 0-40.73604961-8.14720969-51.59899583-24.44162963-10.86294623-16.29441996-16.29441996-40.05711531-16.29441936-71.2880861v-118.81347797c0-27.15736621-3.50782676-45.14912131-10.5234797-53.97526527-7.01565293-8.82614398-15.95495281-13.23921625-26.81789908-13.23921627v-39.37818102c10.86294623 0 19.80224613-4.41307229 26.81789908-13.23921567 7.01565293-8.82614398 10.52347969-26.8178991 10.5234797-53.97526587v-118.81347738c0-31.23097137 5.43147312-54.99366673 16.29441936-71.28808606 10.86294623-16.29441996 28.06261173-24.44162965 51.59899583-24.44162968h34.62564224v36.66244448h-23.76269539c-14.48392891 0-24.21531842 5.54462903-29.19416908 16.6338865-4.97885065 11.08925808-7.468276 25.91265353-7.46827538 44.47018762v122.88708194c0 14.03130588-1.24471267 25.91265353-3.73413799 35.64404362-2.48942533 9.7313895-5.77094027 17.65228794-9.84454542 23.76269537s-8.71298806 10.86294623-13.91814994 14.25761708a41.86760636 41.86760636 0 0 1-15.27601854 6.44987456v1.35786859c4.97885065 0.90524553 10.07085663 3.05520371 15.27601854 6.44987456 5.20516189 3.39467084 9.8445454 8.14720969 13.91814994 14.25761708s7.35512007 14.03130588 9.84454542 23.76269538c2.48942533 9.7313895 3.73413799 21.61273717 3.73413799 35.64404301v122.88708255c0 18.55753346 2.48942533 33.38092953 7.46827538 44.4701876 4.97885065 11.08925808 14.71024015 16.63388711 29.19416908 16.63388652h23.76269539v36.66244446h-34.62564224z m722.38594323-36.66244446h23.76269534c14.48392891 0 24.21531842-5.54462903 29.19416908-16.63388652 4.97885065-11.08925808 7.468276-25.91265353 7.46827538-44.4701876v-122.88708255c0-14.03130588 1.24471267-25.91265353 3.73413802-35.64404301 2.48942533-9.7313895 5.77094027-17.65228794 9.84454543-23.76269538s8.71298806-10.86294623 13.91814993-14.25761708c5.20516189-3.39467084 10.29716786-5.54462903 15.2760185-6.44987456v-1.35786859a41.86760636 41.86760636 0 0 1-15.2760185-6.44987456c-5.20516189-3.39467084-9.8445454-8.14720969-13.91814993-14.25761708s-7.35512007-14.03130588-9.84454543-23.76269537c-2.48942533-9.7313895-3.73413799-21.61273717-3.73413802-35.64404362v-122.88708194c0-18.55753346-2.48942533-33.38092953-7.46827538-44.47018762-4.97885065-11.08925808-14.71024015-16.63388711-29.19416908-16.6338865h-23.76269534V208.13170275h34.6256422c23.53638413 0 40.73604961 8.14720969 51.59899586 24.44162963 10.86294623 16.29441996 16.29441996 40.05711531 16.29441938 71.28808611v118.81347738c0 27.15736621 3.50782676 45.14912131 10.52347964 53.97526586 7.01565293 8.82614398 15.95495281 13.23921625 26.81789907 13.23921568v39.37818102c-10.86294623 0-19.80224613 4.41307229-26.81789907 13.23921627-7.01565293 8.82614398-10.52347969 26.8178991-10.52347964 53.97526527v118.81347797c0 31.23097137-5.43147312 54.99366673-16.29441938 71.2880861-10.86294623 16.29441996-28.06261173 24.44162965-51.59899586 24.44162965h-34.6256422v-36.66244448z" fill="#007aff" p-id="53027"></path></svg>