<svg t="1606799984300" fill="#007aff" class="icon" viewBox="0 0 1308 1024" version="1.1" xmlns="http://www.w3.org/2000/svg" p-id="23951" width="200" height="200"><path d="M1197.273355 1024H338.584153c-51.254147 0-111.040819-58.93372-111.040819-109.04993v-578.357806c0-50.11521 56.259868-109.04893 111.040819-109.04893h858.689202c47.727343 0 111.097816 58.93372 111.097816 109.04993v578.356806c0 50.11721-63.370473 109.04993-111.097816 109.04993z m54.212982-684.448901c0-33.847116-56.886833-55.121932-56.886833-55.121931H341.315001s-56.885834 18.31698-56.885833 48.011327v575.967939c0 35.951999 56.886833 58.648735 56.886833 58.648736h853.285503s56.885834-21.218819 56.885833-55.064935V339.551099zM170.656501 218.668828v691.559505h-56.884834V222.821597c0-50.11721 56.259868-108.993933 111.040819-108.993933h969.788018v56.886833H227.543334s-56.886833 18.259984-56.886833 47.954331zM56.886833 104.897161v691.559505H0V109.05093C0 58.93372 56.259868 0 111.040819 0h969.788018v56.885834H113.771667s-56.886833 18.31698-56.886833 48.011327z" p-id="23952"></path></svg>