<svg t="1606800892079" class="icon" viewBox="0 0 1024 1024" version="1.1" xmlns="http://www.w3.org/2000/svg" p-id="40850" width="200" height="200" fill="#007aff"><path d="M864 96.97H160c-17.67 0-32 14.33-32 32v766.07c0 17.67 14.33 32 32 32h704c17.67 0 32-14.33 32-32V128.97c0-17.68-14.33-32-32-32z m-32 766.06H192V289.12h640v573.91z m0-638.06H192v-64h640v64z" p-id="40851"></path><path d="M512.67 775.96c109.04 0 198.49-83.91 207.29-190.68 0.77-9.32-6.59-17.31-15.95-17.31-4.18 0-7.99 1.6-10.85 4.25a16.086 16.086 0 0 0-5.1 10.48c-7.48 90.3-83.15 161.26-175.39 161.26-97.12 0-176-78.87-176-176 0-97.2 78.8-176 176-176 66.17 0 123.8 36.52 153.86 90.5l-56.66-0.19c-14.74-0.04-23.77 16.34-15.67 28.65 0.11 0.16 0.21 0.32 0.32 0.48 3.4 5.09 9.11 8.15 15.22 8.21v0.06c21.91 0.08 92.1 0.28 92.2 0.28 2.59 0 5.05-0.53 7.28-1.47a18.78 18.78 0 0 0 5.95-4.02c3.39-3.39 5.49-8.07 5.49-13.23 0-0.19-0.69-79.09-0.78-88.91l-0.16-2.35c0.01-6.04-2.92-11.72-7.88-15.2-0.12-0.08-0.23-0.16-0.35-0.24-12.29-8.53-29.09 0.15-29.13 15.1 0 0 0.36 34.36 0.36 38.55-37.81-53.59-100.31-88.52-170.96-88.22-115.64 0.49-208.26 94.52-207.08 210.15 1.16 113.89 93.84 205.85 207.99 205.85z" p-id="40852"></path></svg>