<svg t="1606799906225" class="icon" viewBox="0 0 1026 1024" version="1.1" xmlns="http://www.w3.org/2000/svg" p-id="23207" width="200" height="200"><path d="M512 1024C230.4 1024 0 793.6 0 512S230.4 0 512 0s512 230.4 512 512-230.4 512-512 512z m0-930.909091C281.6 93.090909 93.090909 281.6 93.090909 512s188.509091 418.909091 418.909091 418.909091 418.909091-188.509091 418.909091-418.909091S742.4 93.090909 512 93.090909z" fill="#007aff" opacity=".2" p-id="23208"></path><path d="M954.181818 256l-39.563636 23.272727 39.563636-23.272727C863.418182 97.745455 693.527273 0 512 0v93.090909c148.945455 0 288.581818 81.454545 363.054545 209.454546 37.236364 62.836364 55.854545 134.981818 55.854546 209.454545 0 72.145455-18.618182 146.618182-55.854546 209.454545l81.454546 46.545455c44.218182-76.8 69.818182-165.236364 69.818182-256S1000.727273 335.127273 954.181818 256z" fill="#007aff" p-id="23209"></path></svg>