<svg t="1606800214379" class="icon" viewBox="0 0 1024 1024" version="1.1" xmlns="http://www.w3.org/2000/svg" p-id="29901" width="200" height="200"><path d="M771.497747 718.707298l213.703791-213.703791c10.17699-10.17699 10.17699-20.35298 10.17699-30.52997 0-10.17599-5.087995-20.35198-15.264985-30.528971-96.674906-81.40992-234.056771-111.939891-361.261647-76.322925L400.060109 194.62381c10.17599-66.146935-15.264985-132.293871-66.146935-183.175821-15.264985-15.263985-40.70596-15.263985-55.969945 0L13.357487 276.03473c-5.088995 5.087995-10.17699 15.263985-10.17699 25.439976s5.087995 20.35398 10.17699 30.52997c50.88195 45.793955 117.027886 71.23493 183.174821 66.146935l167.909836 213.703791c-45.793955 127.204876-20.35298 274.762732 71.234931 376.526633 5.087995 10.17599 20.35298 15.263985 30.52997 15.263985 10.17599 0 20.35198-5.087995 30.52797-10.17599L710.439806 779.765239l234.056772 234.057771C954.672568 1023.999 964.849558 1023.999 975.026548 1023.999c15.263985 0 30.52797-10.17599 35.615965-25.440975 5.088995-15.264985 5.088995-30.52997-10.17599-45.793955L771.497747 718.707298z" fill="#007aff" p-id="29902"></path></svg>