<svg t="1606801353938" class="icon" viewBox="0 0 1024 1024" version="1.1" xmlns="http://www.w3.org/2000/svg" p-id="51616" width="200" height="200" fill="#007aff"><path d="M478.3 893H136V127.2h675.4v383.4c0 22.1 17.9 40 40 40s40-17.9 40-40V98.8c0-28.5-23.2-51.6-51.6-51.6H107.7C79.2 47.2 56 70.3 56 98.8v822.5c0 28.5 23.2 51.6 51.6 51.6h370.7c22.1 0 40-17.9 40-40s-17.9-39.9-40-39.9z" p-id="51617"></path><path d="M664.4 271.8H282.9c-22.1 0-40 17.9-40 40s17.9 40 40 40h381.5c22.1 0 40-17.9 40-40s-17.9-40-40-40zM704.4 510.1c0-22.1-17.9-40-40-40H282.9c-22.1 0-40 17.9-40 40s17.9 40 40 40h381.5c22.1 0 40-17.9 40-40zM282.9 668.3c-22.1 0-40 17.9-40 40s17.9 40 40 40H474c22.1 0 40-17.9 40-40s-17.9-40-40-40H282.9zM954.3 630c-16.7-14.5-41.9-12.8-56.4 3.9l-215 246.7-104.3-90.9c-16.7-14.5-41.9-12.8-56.4 3.9s-12.8 41.9 3.9 56.4l133.4 116.2c2.3 2 4.8 3.7 7.3 5.1 6.3 3.7 13.3 5.5 20.3 5.5 11.2 0 22.3-4.6 30.2-13.7l241-276.6c14.4-16.7 12.6-42-4-56.5z" p-id="51618"></path></svg>