<svg t="1606794354256" fill="#007aff" class="icon" viewBox="0 0 1537 1024" version="1.1" xmlns="http://www.w3.org/2000/svg" p-id="6749" width="200" height="200"><path d="M320 76.8a51.2 51.2 0 0 0-51.2 51.2v768a51.2 51.2 0 0 0 51.2 51.2h896a51.2 51.2 0 0 0 51.2-51.2V128a51.2 51.2 0 0 0-51.2-51.2H320zM320 0h896a128 128 0 0 1 128 128v768a128 128 0 0 1-128 128H320a128 128 0 0 1-128-128V128a128 128 0 0 1 128-128z" p-id="6750"></path><path d="M631.104 708.416L928 384l288 448H320l160-256 151.104 132.416z" p-id="6751"></path><path d="M544 352m-96 0a96 96 0 1 0 192 0 96 96 0 1 0-192 0Z" p-id="6752"></path><path d="M1537.664 544l-126.336 98.176-3.328-192zM0 544L128 448v192z" p-id="6753"></path></svg>