<svg t="1606793910841" fill="#007aff" class="icon" viewBox="0 0 1024 1024" version="1.1" xmlns="http://www.w3.org/2000/svg" p-id="3698" width="200" height="200"><path d="M310.368 372.352H124.192a31.04 31.04 0 0 0-31.04 31.04v186.176c0 17.12 13.888 31.04 31.04 31.04h186.176a31.04 31.04 0 0 0 31.04-31.04V403.392a31.04 31.04 0 0 0-31.04-31.04z m-15.52 217.216H139.712c-17.12 0-15.52 1.6-15.52-15.52V418.912c0-17.12-1.6-15.52 15.52-15.52h155.136c17.12 0 15.52-1.6 15.52 15.52v155.136c0 17.12 1.6 15.52-15.52 15.52z m124.128-46.528h480.96V512h-480.96v31.04z m0 124.128h480.96v-31.04h-480.96v31.04z m0 139.616h480.96v-31.04h-480.96v31.04z m0-403.392h480.96v-31.04h-480.96v31.04zM993.024 170.656h-15.52V46.528a31.04 31.04 0 0 0-31.04-31.04H775.808a31.04 31.04 0 0 0-31.04 31.04v124.128H605.12V46.528a31.04 31.04 0 0 0-31.04-31.04H403.424a31.04 31.04 0 0 0-31.04 31.04v124.128H248.256V46.528a31.04 31.04 0 0 0-31.04-31.04H31.04a31.04 31.04 0 0 0-31.04 31.04V992.96c0 17.12 13.888 31.04 31.04 31.04h961.952a31.04 31.04 0 0 0 31.04-31.04V201.696a31.04 31.04 0 0 0-31.04-31.04z m0 791.296a31.04 31.04 0 0 1-31.04 31.04H62.112a31.04 31.04 0 0 1-31.04-31.04V77.6a31.04 31.04 0 0 1 31.04-31.04h124.128a31.04 31.04 0 0 1 31.04 31.04v124.128h744.736a31.04 31.04 0 0 1 31.04 31.04v729.216z" p-id="3699"></path></svg>