<svg t="1606795071740" class="icon" viewBox="0 0 1024 1024" version="1.1" xmlns="http://www.w3.org/2000/svg" p-id="21516" width="200" height="200"><path d="M0 0m42.666667 0l938.666666 0q42.666667 0 42.666667 42.666667l0 938.666666q0 42.666667-42.666667 42.666667l-938.666666 0q-42.666667 0-42.666667-42.666667l0-938.666666q0-42.666667 42.666667-42.666667Z" fill="#007aff" opacity=".7" p-id="21517"></path><path d="M301.636267 424.6272a5.205333 5.205333 0 0 1-0.426667-6.528l17.8688-24.32a4.181333 4.181333 0 0 1 5.930667-0.861867l99.541333 76.288c5.597867 4.292267 14.5152 4.1216 19.968-0.426666l252.16-210.065067a4.778667 4.778667 0 0 1 6.254933 0.256l16.955734 16.7424a4.215467 4.215467 0 0 1-0.042667 5.956267L440.763733 556.330667a8.388267 8.388267 0 0 1-12.023466-0.1536L301.636267 424.6272z" fill="#FFFFFF" p-id="21518"></path><path d="M434.1248 822.4768c4.6592-0.221867 8.32-1.442133 10.760533-3.771733 2.6624-2.884267 4.548267-11.093333 5.6576-24.849067l-7.765333-2.440533c-0.6656 12.202667-2.107733 19.3024-4.3264 21.2992-1.664 1.3312-3.882667 1.9968-6.545067 1.9968h-55.688533c-5.102933 0-7.6544-2.551467-7.6544-7.432534v-32.725333h69.666133v-44.373333h-82.090666v7.765333h73.992533v28.9536h-61.568v-16.418133h-7.9872v58.24c0 9.096533 4.437333 13.755733 13.422933 13.755733h60.125867z m53.802667 3.882667c13.422933-5.213867 24.738133-10.9824 33.834666-17.416534 9.3184 6.101333 21.077333 11.758933 35.2768 16.9728l4.104534-7.432533c-12.868267-4.437333-23.850667-9.3184-32.836267-14.6432 9.096533-7.765333 15.086933-16.418133 18.082133-25.9584v-6.877867h-45.371733c1.553067-3.9936 2.884267-8.209067 4.215467-12.6464h54.024533v-7.6544h-51.9168c1.9968-8.209067 3.771733-16.861867 5.213867-26.180266l-8.098134-0.9984a245.589333 245.589333 0 0 1-5.3248 27.178666h-19.413333l6.3232-21.853866-7.876267-1.3312-8.763733 30.839466h27.511467c-7.765333 24.738133-19.6352 44.151467-35.831467 58.350934l4.104533 7.3216c12.6464-10.3168 23.074133-24.183467 31.172267-41.710934 3.6608 7.765333 9.762133 14.976 18.414933 21.632-8.32 5.435733-18.6368 10.427733-31.061333 14.976l4.215467 7.432534z m57.463466-77.986134l5.6576-5.6576c-5.3248-6.101333-11.869867-12.202667-19.857066-18.304l-5.3248 5.213867c8.32 6.656 14.865067 12.868267 19.524266 18.747733z m-24.072533 50.9184c-8.874667-6.434133-15.197867-13.422933-18.9696-20.9664h35.9424c-3.106133 7.543467-8.763733 14.532267-16.9728 20.9664z m89.745067 9.540267c16.418133-8.763733 26.180267-19.857067 29.2864-33.28h30.173866v-7.543467H641.792c0.6656-4.6592 0.9984-10.205867 1.220267-16.418133h23.739733v-7.3216h-14.421333c3.106133-5.213867 5.879467-11.204267 8.32-17.9712l-7.543467-2.6624a132.864 132.864 0 0 1-8.874667 20.6336H610.730667v7.3216h24.405333a161.288533 161.288533 0 0 1-1.3312 16.418133h-26.845867v7.543467h25.070934c-3.328 11.093333-12.091733 19.968-26.069334 26.845867l5.102934 6.434133z m14.754133-64.785067l6.766933-3.328a150.8352 150.8352 0 0 0-10.427733-16.196266l-7.210667 3.438933c3.882667 4.6592 7.543467 10.094933 10.871467 16.085333z m-30.839467 4.881067l5.768534-5.6576c-5.213867-5.768533-11.648-11.426133-19.3024-17.194667l-5.435734 5.213867c8.098133 6.3232 14.421333 12.202667 18.9696 17.6384z m-15.419733 77.2096c6.101333-10.205867 10.538667-15.197867 13.201067-15.197867 1.3312 0 2.773333 0.887467 4.3264 2.773334 3.438933 3.9936 7.432533 6.766933 11.869866 8.098133 4.437333 1.220267 10.3168 1.885867 17.527467 1.9968 7.099733 0.110933 13.755733 0.221867 19.857067 0.221867h25.181866l1.885867-7.9872c-2.884267 0.221867-6.9888 0.3328-12.3136 0.443733-5.435733 0.110933-10.760533 0.221867-15.863467 0.221867-8.763733 0-16.085333-0.110933-21.9648-0.221867-6.656-0.221867-11.648-1.109333-15.197866-2.6624-3.106133-1.442133-5.9904-3.771733-8.6528-6.9888a18.7648 18.7648 0 0 0-2.773334-2.551467V762.794667h-23.185066v7.3216h15.752533V803.84c-4.548267 1.9968-9.762133 7.6544-15.6416 16.9728l5.9904 5.3248z m85.307733-17.083733l5.546667-5.9904a178.2272 178.2272 0 0 0-24.96-20.9664l-4.770133 5.3248a181.930667 181.930667 0 0 1 24.183466 21.632z" fill="#FFFFFF" p-id="21519"></path></svg>