<svg data-v-1e121de1="" version="1.0" xmlns="http://www.w3.org/2000/svg" xmlns:xlink="http://www.w3.org/1999/xlink" width="100%" height="100%" viewBox="0 0 340.000000 250.000000" preserveAspectRatio="xMidYMid meet" color-interpolation-filters="sRGB" class="el-tooltip" style="margin: auto;"><rect data-v-1e121de1="" x="0" y="0" width="100%" height="100%" fill="#fff" fill-opacity="1" class="background"></rect> <rect data-v-1e121de1="" x="0" y="0" width="100%" height="100%" fill="url(#watermark)" fill-opacity="1" class="watermarklayer"></rect> <g data-v-1e121de1="" fill="#4fc08d" class="icon-text-wrapper icon-svg-group iconsvg" transform="translate(55.4324951171875,95)"><g class="iconsvg-imagesvg" transform="translate(0,0)"><rect fill="#4fc08d" fill-opacity="0" stroke-width="2" x="0" y="0" width="60" height="60" class="image-rect"></rect> <svg x="0" y="0" width="60" height="60" filtersec="colorsb382618161" class="image-svg-svg primary"><svg xmlns="http://www.w3.org/2000/svg" viewBox="0 0 53.484 53.484"><g><g><path fill="#4fc08d" d="M0 0l26.742 53.484V0H0z"></path><path fill="#2d9063" d="M26.742 0v53.484L53.484 0H26.742z"></path></g></g></svg></svg> <!----></g> <g transform="translate(67,12.024999618530273)"><g fill-rule="" class="tp-name iconsvg-namesvg"><g><path d="M25.15-24.48L16.79-0.27L9.18-0.27L0.58-24.48L7.33-24.48Q11.38-11.79 13.28-5.31L13.28-5.31L13.77-3.78L12.24-3.78L12.73-5.31Q14.63-11.79 18.68-24.48L18.68-24.48L25.15-24.48ZM37.75 0.32L37.75 0.32Q33.08 0.32 31.23-2.25Q29.38-4.81 29.38-9.18L29.38-9.18L29.38-24.48L36.18-24.48L36.18-9.81Q36.18-3.60 39.51-3.60L39.51-3.60Q40.73-3.60 41.85-4.34Q42.97-5.08 44.64-7.15L44.64-7.15L44.64-24.48L51.44-24.48L51.44-0.27L45.59-0.27L45.18-4.00L46.58-4.00Q42.93 0.32 37.75 0.32ZM70.33 0.32L70.33 0.32Q66.56 0.32 63.56-1.35Q60.57-3.01 59.02-5.80Q57.47-8.59 57.47-12.33L57.47-12.33Q57.47-16.06 59.02-18.88Q60.57-21.69 63.38-23.40Q66.19-25.11 69.57-25.11L69.57-25.11Q75.24-25.11 77.85-21.80Q80.46-18.50 80.46-13.63L80.46-13.63Q80.46-12.29 80.28-11.29L80.28-11.29L64.13-11.29Q64.58-7.02 66.51-5.11Q68.44-3.19 71.01-3.19L71.01-3.19Q73.80-3.19 77.31-5.71L77.31-5.71L79.20-2.29Q77.76-1.26 75.42-0.47Q73.08 0.32 70.33 0.32ZM64.08-14.31L74.38-14.31Q74.38-18.18 73.01-19.89Q71.64-21.60 69.66-21.60L69.66-21.60Q67.95-21.60 66.28-19.98Q64.62-18.36 64.08-14.31L64.08-14.31ZM95.53 10.84L95.53 10.84Q90.63 10.84 87.55 9.11Q84.46 7.38 84.46 4.59L84.46 4.59Q84.46 1.93 88.06-0.36L88.06-0.36L88.06-1.48Q85.81-2.88 85.81-5.13L85.81-5.13Q85.81-7.15 88.56-9.27L88.56-9.27L88.56-10.35Q85.32-12.87 85.32-16.47L85.32-16.47Q85.32-18.95 86.60-20.86Q87.88-22.77 90.31-23.94Q92.74-25.11 95.71-25.11L95.71-25.11Q98.19-25.11 99.67-24.48L99.67-24.48L108.90-24.48L108.90-21.15L103.50-21.15Q105.79-18.77 105.79-16.34L105.79-16.34Q105.79-12.73 102.98-10.42Q100.17-8.10 95.71-8.10L95.71-8.10Q93.69-8.10 92.52-8.59L92.52-8.59Q92.52-8.55 92.11-7.88Q91.71-7.20 91.71-5.98L91.71-5.98Q91.71-4.41 92.47-3.85Q93.24-3.28 95.04-3.28L95.04-3.28L99.58-3.28Q104.49-3.28 106.90-1.78Q109.30-0.27 109.30 2.48L109.30 2.48Q109.30 5.58 105.66 8.21Q102.01 10.84 95.53 10.84ZM95.71-10.89L95.71-10.89Q96.97-10.89 98.28-12.24Q99.58-13.59 99.58-16.47L99.58-16.47Q99.58-19.39 98.30-20.70Q97.02-22.00 95.71-22.00L95.71-22.00Q94.41-22.00 93.13-20.72Q91.84-19.44 91.84-16.47L91.84-16.47Q91.84-13.59 93.15-12.24Q94.45-10.89 95.71-10.89ZM96.34 7.96L96.34 7.96Q99 7.96 100.84 6.71Q102.69 5.44 102.69 3.28L102.69 3.28Q102.69 1.26 101.70 0.79Q100.71 0.32 98.86 0.32L98.86 0.32L95.13 0.32Q93.15 0.32 92.20 0.09L92.20 0.09Q90.49 1.48 90.49 3.82L90.49 3.82Q90.49 7.79 96.34 7.96ZM123.16 10.84L123.16 10.84Q118.26 10.84 115.18 9.11Q112.09 7.38 112.09 4.59L112.09 4.59Q112.09 1.93 115.69-0.36L115.69-0.36L115.69-1.48Q113.44-2.88 113.44-5.13L113.44-5.13Q113.44-7.15 116.19-9.27L116.19-9.27L116.19-10.35Q112.95-12.87 112.95-16.47L112.95-16.47Q112.95-18.95 114.23-20.86Q115.51-22.77 117.94-23.94Q120.37-25.11 123.34-25.11L123.34-25.11Q125.82-25.11 127.30-24.48L127.30-24.48L136.53-24.48L136.53-21.15L131.13-21.15Q133.42-18.77 133.42-16.34L133.42-16.34Q133.42-12.73 130.61-10.42Q127.80-8.10 123.34-8.10L123.34-8.10Q121.32-8.10 120.15-8.59L120.15-8.59Q120.15-8.55 119.74-7.88Q119.34-7.20 119.34-5.98L119.34-5.98Q119.34-4.41 120.10-3.85Q120.87-3.28 122.67-3.28L122.67-3.28L127.21-3.28Q132.12-3.28 134.53-1.78Q136.94-0.27 136.94 2.48L136.94 2.48Q136.94 5.58 133.29 8.21Q129.64 10.84 123.16 10.84ZM123.34-10.89L123.34-10.89Q124.60-10.89 125.91-12.24Q127.21-13.59 127.21-16.47L127.21-16.47Q127.21-19.39 125.93-20.70Q124.65-22.00 123.34-22.00L123.34-22.00Q122.04-22.00 120.76-20.72Q119.47-19.44 119.47-16.47L119.47-16.47Q119.47-13.59 120.78-12.24Q122.08-10.89 123.34-10.89ZM123.97 7.96L123.97 7.96Q126.63 7.96 128.47 6.71Q130.32 5.44 130.32 3.28L130.32 3.28Q130.32 1.26 129.33 0.79Q128.34 0.32 126.49 0.32L126.49 0.32L122.76 0.32Q120.78 0.32 119.83 0.09L119.83 0.09Q118.12 1.48 118.12 3.82L118.12 3.82Q118.12 7.79 123.97 7.96ZM143.23 10.08L143.23 10.08Q140.98 10.08 139.45 9.45L139.45 9.45L140.26 6.08Q140.35 6.08 140.35 5.63L140.35 5.63Q142.42 6.43 142.92 6.43L142.92 6.43Q145.75 6.43 147.24 1.89L147.24 1.89L147.87-0.22L138.19-24.48L144.90-24.48Q149.80-10.89 150.46-8.78Q151.11-6.66 151.74-4.77L151.74-4.77L150.30-4.77L152.23-11.65L156.24-24.48L162.72-24.48L153.85 1.08Q152.95 3.65 151.69 5.63Q150.43 7.60 148.39 8.84Q146.34 10.08 143.23 10.08Z" transform="translate(-0.585, 25.11)"></path></g> <!----> <!----> <!----> <!----> <!----> <!----> <!----></g> <!----></g></g></svg>