<svg t="1602475739978" class="icon" viewBox="0 0 1024 1024" version="1.1" xmlns="http://www.w3.org/2000/svg" p-id="5385" width="200" height="200"><path d="M837.376 0C940.416 0 1024 83.84 1024 186.624v650.752C1024 940.416 940.16 1024 837.376 1024H186.624A186.752 186.752 0 0 1 0 837.376V186.624C0 83.584 83.84 0 186.624 0h650.752z" fill="#FFFFFF" p-id="5386"></path><path d="M837.376 0C940.416 0 1024 83.84 1024 186.624v650.752C1024 940.416 940.16 1024 837.376 1024H186.624A186.752 186.752 0 0 1 0 837.376V186.624C0 83.584 83.84 0 186.624 0h650.752z m0 73.152H186.624c-62.528 0-113.472 50.88-113.472 113.472v650.752c0 62.528 50.88 113.472 113.472 113.472h650.752c62.528 0 113.472-50.88 113.472-113.472V186.624c0-62.528-50.88-113.472-113.472-113.472z" fill="#CCCCCC" p-id="5387"></path></svg>