<svg t="1602475705024" class="icon" viewBox="0 0 1024 1024" version="1.1" xmlns="http://www.w3.org/2000/svg" p-id="5259" width="200" height="200"><path d="M0 0m186.176 0l651.648 0q186.176 0 186.176 186.176l0 651.648q0 186.176-186.176 186.176l-651.648 0q-186.176 0-186.176-186.176l0-651.648q0-186.176 186.176-186.176Z" fill="#007AFF" p-id="5260"></path><path d="M231.68 583.296a45.568 45.568 0 0 1-12.224-31.36c0-11.712 4.352-23.04 12.16-31.232a40.448 40.448 0 0 1 59.52 0l138.368 145.472 347.264-360.576a40.448 40.448 0 0 1 59.52 0 46.144 46.144 0 0 1 0 62.528l-377.088 392.064a41.28 41.28 0 0 1-59.52-0.32L231.68 583.232z" fill="#FFFFFF" p-id="5261"></path></svg>