<svg t="1603353924623" class="icon" viewBox="0 0 1024 1024" version="1.1" xmlns="http://www.w3.org/2000/svg" p-id="15372" width="200" height="200"><path d="M1024 512A512 512 0 1 1 0 512a512 512 0 0 1 1024 0zM367.908571 290.377143a54.857143 54.857143 0 1 0-77.531428 77.531428L434.468571 512 290.377143 656.091429a54.857143 54.857143 0 1 0 77.531428 77.531428L512 589.531429l144.091429 144.091428a54.857143 54.857143 0 1 0 77.531428-77.531428L589.531429 512l144.091428-144.091429a54.857143 54.857143 0 1 0-77.531428-77.531428L512 434.468571 367.908571 290.377143z" fill="#CCCCCC" p-id="15373"></path></svg>