<?xml version="1.0" standalone="no"?><!DOCTYPE svg PUBLIC "-//W3C//DTD SVG 1.1//EN" "http://www.w3.org/Graphics/SVG/1.1/DTD/svg11.dtd"><svg t="1599801716311" class="icon" viewBox="0 0 1024 1024" version="1.1" xmlns="http://www.w3.org/2000/svg" p-id="12003" xmlns:xlink="http://www.w3.org/1999/xlink" width="200" height="200"><defs><style type="text/css"></style></defs><path d="M512 0c282.760533 0 512 229.239467 512 512 0 282.760533-229.239467 512-512 512-282.760533 0-512-229.239467-512-512C0 229.239467 229.239467 0 512 0z m0 34.133333C248.081067 34.133333 34.133333 248.081067 34.133333 512s213.947733 477.866667 477.866667 477.866667 477.866667-213.947733 477.866667-477.866667S775.918933 34.133333 512 34.133333zM318.907733 311.842133L512 504.9344l193.092267-193.092267a17.066667 17.066667 0 0 1 21.777066-1.979733l2.3552 1.979733a17.066667 17.066667 0 0 1 0 24.132267L536.132267 529.066667l193.092266 193.092266a17.066667 17.066667 0 0 1-24.132266 24.132267L512 553.198933l-193.092267 193.092267a17.066667 17.066667 0 0 1-21.777066 1.979733l-2.3552-1.979733a17.066667 17.066667 0 0 1 0-24.132267l193.092266-193.092266-193.092266-193.092267a17.066667 17.066667 0 0 1 24.132266-24.132267z" fill="#4A4A4A" opacity=".6" p-id="12004"></path></svg>