<svg t="1602486894063" class="icon" viewBox="0 0 1024 1024" version="1.1" xmlns="http://www.w3.org/2000/svg" p-id="5511" width="200" height="200"><path d="M46.528 512a465.472 465.472 0 1 0 930.944 0A465.472 465.472 0 0 0 46.528 512z" fill="#FFFFFF" p-id="5512"></path><path d="M512 0a511.936 511.936 0 0 1 511.808 498.56L1024 512a511.936 511.936 0 0 1-498.56 511.808L512 1024a512 512 0 0 1-512-512A511.936 511.936 0 0 1 498.56 0.192L512 0z m-11.52 73.28A438.784 438.784 0 0 0 73.152 512c0 242.432 196.48 438.848 437.888 438.848l12.48-0.128c237.44-6.08 427.328-200.64 427.328-437.76l-0.128-12.48A438.848 438.848 0 0 0 524.8 73.28l-12.416-0.128-11.968 0.128z" fill="#CCCCCC" p-id="5513"></path></svg>