<svg t="1603353823357" class="icon" viewBox="0 0 1024 1024" version="1.1" xmlns="http://www.w3.org/2000/svg" p-id="15246" width="200" height="200"><path d="M845.682136 745.765764a462.992301 462.992301 0 0 0 89.599616-275.74739A471.988834 471.988834 0 0 0 465.926049 0.004389 463.870012 463.870012 0 0 0 0.008046 466.653817a472.061977 472.061977 0 0 0 469.28256 470.013986 461.529451 461.529451 0 0 0 276.6251-90.623612l0.29257-0.219427 156.159331 156.232473a70.509412 70.509412 0 1 0 99.620145-99.76643l-156.378759-156.525043z m-376.6841 97.133298a377.634953 377.634953 0 0 1-375.440677-375.952675A371.198409 371.198409 0 0 1 466.291762 93.626844a377.634953 377.634953 0 0 1 375.440676 375.952675 371.198409 371.198409 0 0 1-372.734402 373.319543z" fill="#BBBBBB" p-id="15247"></path></svg>