<svg t="1606810832863" class="icon" viewBox="0 0 1280 1024" version="1.1" xmlns="http://www.w3.org/2000/svg" p-id="4694" width="200" height="200"><path d="M556.117333 961.450667l296.96-862.208 0.512-2.133334-297.472 864.426667zM853.077333 54.272H763.221333a10.752 10.752 0 0 0-10.154666 7.168L444.586667 957.44a10.666667 10.666667 0 0 0 10.154666 14.165333h90.368a10.752 10.752 0 0 0 10.154667-7.253333l0.853333-2.816 297.557334-864.426667 9.813333-28.501333a10.837333 10.837333 0 0 0-10.24-14.250667z m391.253334 444.586667a23.04 23.04 0 0 0-3.584-3.669334l-292.010667-228.352a10.581333 10.581333 0 0 0-17.152 8.362667v108.373333c0 3.413333 1.450667 6.4 4.096 8.448L1089.024 512l-153.344 119.978667a10.752 10.752 0 0 0-4.096 8.448v108.373333a10.666667 10.666667 0 0 0 17.152 8.362667l292.010667-228.352a21.333333 21.333333 0 0 0 3.584-30.037334zM359.68 266.666667L67.669333 495.274667a21.504 21.504 0 0 0 0 33.621333l292.010667 228.352a10.666667 10.666667 0 0 0 17.237333-8.362667v-108.373333a10.325333 10.325333 0 0 0-4.181333-8.448L219.392 512l153.344-119.978667a10.752 10.752 0 0 0 4.181333-8.448v-108.373333a10.581333 10.581333 0 0 0-17.237333-8.362667z" p-id="4695" fill="#ffffff"></path></svg>