<?xml version="1.0" encoding="UTF-8"?>
<svg width="68px" height="16px" viewBox="0 0 68 16" version="1.1" xmlns="http://www.w3.org/2000/svg" xmlns:xlink="http://www.w3.org/1999/xlink">
    <!-- Generator: Sketch 63.1 (92452) - https://sketch.com -->
    <title>vueggy logo</title>
    <desc>Created with Sketch.</desc>
    <g id="iOS" stroke="none" stroke-width="1" fill="none" fill-rule="evenodd">
        <g id="group" transform="translate(0.303675, 0.000000)" fill-rule="nonzero">
            <g>
                <rect id="rectangle" fill-opacity="0" fill="#0064d0" x="0" y="0" width="17.6470588" height="17.6470588"></rect>
                <g id="path">
                    <g>
                        <polygon fill="#0064d0" points="0 0 7.86529412 15.7305882 7.86529412 0"></polygon>
                        <polygon fill="#007aff" points="7.86529412 0 7.86529412 15.7305882 15.7305882 0"></polygon>
                    </g>
                </g>
            </g>
            <g transform="translate(19.705882, 3.536765)" fill="#007aff" id="shape">
                <g>
                    <path d="M7.225,0.185294118 L4.76617647,7.30588235 L2.52794118,7.30588235 L-0.00147058824,0.185294118 L1.98382353,0.185294118 C2.77794118,2.67352941 3.36127451,4.55294118 3.73382353,5.82352941 L3.73382353,5.82352941 L3.87794118,6.27352941 L3.42794118,6.27352941 L3.57205882,5.82352941 C3.94460784,4.55294118 4.52794118,2.67352941 5.32205882,0.185294118 L5.32205882,0.185294118 L7.225,0.185294118 Z M10.9308824,7.47941176 L10.9308824,7.47941176 C10.0151961,7.47941176 9.37598039,7.22745098 9.01323529,6.72352941 C8.6504902,6.22156863 8.46911765,5.54215686 8.46911765,4.68529412 L8.46911765,4.68529412 L8.46911765,0.185294118 L10.4691176,0.185294118 L10.4691176,4.5 C10.4691176,5.71764706 10.7955882,6.32647059 11.4485294,6.32647059 L11.4485294,6.32647059 C11.6877451,6.32647059 11.9171569,6.25392157 12.1367647,6.10882353 C12.3563725,5.96372549 12.629902,5.68823529 12.9573529,5.28235294 L12.9573529,5.28235294 L12.9573529,0.185294118 L14.9573529,0.185294118 L14.9573529,7.30588235 L13.2367647,7.30588235 L13.1161765,6.20882353 L13.5279412,6.20882353 C12.8122549,7.05588235 11.9465686,7.47941176 10.9308824,7.47941176 Z M20.5132353,7.47941176 L20.5132353,7.47941176 C19.7740196,7.47941176 19.1102941,7.31568627 18.5220588,6.98823529 C17.9357843,6.6627451 17.4906863,6.22647059 17.1867647,5.67941176 C16.8828431,5.13235294 16.7308824,4.49215686 16.7308824,3.75882353 L16.7308824,3.75882353 C16.7308824,3.02745098 16.8828431,2.38529412 17.1867647,1.83235294 C17.4906863,1.28137255 17.9181373,0.838235294 18.4691176,0.502941176 C19.020098,0.167647059 19.6269608,0 20.2897059,0 L20.2897059,0 C21.4014706,0 22.2132353,0.324509804 22.725,0.973529412 C23.2367647,1.62058824 23.4926471,2.42156863 23.4926471,3.37647059 L23.4926471,3.37647059 C23.4926471,3.63921569 23.475,3.86862745 23.4397059,4.06470588 L23.4397059,4.06470588 L18.6897059,4.06470588 C18.7779412,4.90196078 19.0112745,5.50784314 19.3897059,5.88235294 C19.7681373,6.25882353 20.2093137,6.44705882 20.7132353,6.44705882 L20.7132353,6.44705882 C21.2602941,6.44705882 21.8779412,6.2 22.5661765,5.70588235 L22.5661765,5.70588235 L23.1220588,6.71176471 C22.8397059,6.91372549 22.4691176,7.09215686 22.0102941,7.24705882 C21.5514706,7.40196078 21.052451,7.47941176 20.5132353,7.47941176 Z M18.675,3.17647059 L21.7044118,3.17647059 C21.7044118,2.41764706 21.570098,1.87058824 21.3014706,1.53529412 C21.0328431,1.2 20.7044118,1.03235294 20.3161765,1.03235294 L20.3161765,1.03235294 C19.9808824,1.03235294 19.6495098,1.19117647 19.3220588,1.50882353 C18.9965686,1.82647059 18.7808824,2.38235294 18.675,3.17647059 L18.675,3.17647059 Z M27.925,10.5735294 L27.925,10.5735294 C26.9642157,10.5735294 26.1818627,10.4039216 25.5779412,10.0647059 C24.9720588,9.7254902 24.6691176,9.28235294 24.6691176,8.73529412 L24.6691176,8.73529412 C24.6691176,8.21372549 25.0220588,7.72843137 25.7279412,7.27941176 L25.7279412,7.27941176 L25.7279412,6.95 C25.2867647,6.6754902 25.0661765,6.31764706 25.0661765,5.87647059 L25.0661765,5.87647059 C25.0661765,5.48039216 25.3357843,5.0745098 25.875,4.65882353 L25.875,4.65882353 L25.875,4.34117647 C25.2397059,3.84705882 24.9220588,3.24705882 24.9220588,2.54117647 L24.9220588,2.54117647 C24.9220588,2.05490196 25.047549,1.6245098 25.2985294,1.25 C25.5495098,0.875490196 25.9132353,0.573529412 26.3897059,0.344117647 C26.8661765,0.114705882 27.3955882,0 27.9779412,0 L27.9779412,0 C28.4642157,0 28.852451,0.0617647059 29.1426471,0.185294118 L29.1426471,0.185294118 L31.8573529,0.185294118 L31.8573529,1.16470588 L30.2691176,1.16470588 C30.7181373,1.63137255 30.9426471,2.10294118 30.9426471,2.57941176 L30.9426471,2.57941176 C30.9426471,3.2872549 30.6671569,3.86764706 30.1161765,4.32058824 C29.5651961,4.7754902 28.852451,5.00294118 27.9779412,5.00294118 L27.9779412,5.00294118 C27.5818627,5.00294118 27.2691176,4.95490196 27.0397059,4.85882353 L27.0397059,4.85882353 C27.0397059,4.86666667 26.9995098,4.93627451 26.9191176,5.06764706 C26.8406863,5.20098039 26.8014706,5.3872549 26.8014706,5.62647059 L26.8014706,5.62647059 C26.8014706,5.93431373 26.8759804,6.14313725 27.025,6.25294118 C27.1759804,6.36470588 27.4279412,6.42058824 27.7808824,6.42058824 L27.7808824,6.42058824 L29.1161765,6.42058824 C30.0789216,6.42058824 30.7965686,6.56764706 31.2691176,6.86176471 C31.7397059,7.15784314 31.975,7.5754902 31.975,8.11470588 L31.975,8.11470588 C31.975,8.72254902 31.6181373,9.28431373 30.9044118,9.8 C30.1887255,10.3156863 29.1955882,10.5735294 27.925,10.5735294 Z M27.9779412,4.18235294 L27.9779412,4.18235294 C28.225,4.18235294 28.4769608,4.05 28.7338235,3.78529412 C28.9887255,3.52058824 29.1161765,3.10588235 29.1161765,2.54117647 L29.1161765,2.54117647 C29.1161765,1.96862745 28.9906863,1.55392157 28.7397059,1.29705882 C28.4887255,1.04215686 28.2348039,0.914705882 27.9779412,0.914705882 L27.9779412,0.914705882 C27.7230392,0.914705882 27.470098,1.04019608 27.2191176,1.29117647 C26.9661765,1.54215686 26.8397059,1.95882353 26.8397059,2.54117647 L26.8397059,2.54117647 C26.8397059,3.10588235 26.9681373,3.52058824 27.225,3.78529412 C27.479902,4.05 27.7308824,4.18235294 27.9779412,4.18235294 Z M28.1632353,9.72647059 L28.1632353,9.72647059 C28.6848039,9.72647059 29.1259804,9.60392157 29.4867647,9.35882353 C29.8495098,9.10980392 30.0308824,8.77352941 30.0308824,8.35 L30.0308824,8.35 C30.0308824,7.95392157 29.9338235,7.70980392 29.7397059,7.61764706 C29.5455882,7.5254902 29.2671569,7.47941176 28.9044118,7.47941176 L28.9044118,7.47941176 L27.8073529,7.47941176 C27.4191176,7.47941176 27.1318627,7.45686275 26.9455882,7.41176471 L26.9455882,7.41176471 C26.6102941,7.68431373 26.4426471,8.05 26.4426471,8.50882353 L26.4426471,8.50882353 C26.4426471,9.2872549 27.0161765,9.69313725 28.1632353,9.72647059 Z M36.0514706,10.5735294 L36.0514706,10.5735294 C35.0906863,10.5735294 34.3083333,10.4039216 33.7044118,10.0647059 C33.0985294,9.7254902 32.7955882,9.28235294 32.7955882,8.73529412 L32.7955882,8.73529412 C32.7955882,8.21372549 33.1485294,7.72843137 33.8544118,7.27941176 L33.8544118,7.27941176 L33.8544118,6.95 C33.4132353,6.6754902 33.1926471,6.31764706 33.1926471,5.87647059 L33.1926471,5.87647059 C33.1926471,5.48039216 33.4622549,5.0745098 34.0014706,4.65882353 L34.0014706,4.65882353 L34.0014706,4.34117647 C33.3661765,3.84705882 33.0485294,3.24705882 33.0485294,2.54117647 L33.0485294,2.54117647 C33.0485294,2.05490196 33.1740196,1.6245098 33.425,1.25 C33.6759804,0.875490196 34.0397059,0.573529412 34.5161765,0.344117647 C34.9926471,0.114705882 35.5220588,0 36.1044118,0 L36.1044118,0 C36.5906863,0 36.9789216,0.0617647059 37.2691176,0.185294118 L37.2691176,0.185294118 L39.9838235,0.185294118 L39.9838235,1.16470588 L38.3955882,1.16470588 C38.8446078,1.63137255 39.0691176,2.10294118 39.0691176,2.57941176 L39.0691176,2.57941176 C39.0691176,3.2872549 38.7936275,3.86764706 38.2426471,4.32058824 C37.6916667,4.7754902 36.9789216,5.00294118 36.1044118,5.00294118 L36.1044118,5.00294118 C35.7083333,5.00294118 35.3955882,4.95490196 35.1661765,4.85882353 L35.1661765,4.85882353 C35.1661765,4.86666667 35.1259804,4.93627451 35.0455882,5.06764706 C34.9671569,5.20098039 34.9279412,5.3872549 34.9279412,5.62647059 L34.9279412,5.62647059 C34.9279412,5.93431373 35.002451,6.14313725 35.1514706,6.25294118 C35.302451,6.36470588 35.5544118,6.42058824 35.9073529,6.42058824 L35.9073529,6.42058824 L37.2426471,6.42058824 C38.2053922,6.42058824 38.9230392,6.56764706 39.3955882,6.86176471 C39.8681373,7.15784314 40.1044118,7.5754902 40.1044118,8.11470588 L40.1044118,8.11470588 C40.1044118,8.72254902 39.7465686,9.28431373 39.0308824,9.8 C38.3151961,10.3156863 37.3220588,10.5735294 36.0514706,10.5735294 Z M36.1044118,4.18235294 L36.1044118,4.18235294 C36.3514706,4.18235294 36.6034314,4.05 36.8602941,3.78529412 C37.1151961,3.52058824 37.2426471,3.10588235 37.2426471,2.54117647 L37.2426471,2.54117647 C37.2426471,1.96862745 37.1171569,1.55392157 36.8661765,1.29705882 C36.6151961,1.04215686 36.3612745,0.914705882 36.1044118,0.914705882 L36.1044118,0.914705882 C35.8495098,0.914705882 35.5965686,1.04019608 35.3455882,1.29117647 C35.0926471,1.54215686 34.9661765,1.95882353 34.9661765,2.54117647 L34.9661765,2.54117647 C34.9661765,3.10588235 35.0946078,3.52058824 35.3514706,3.78529412 C35.6063725,4.05 35.8573529,4.18235294 36.1044118,4.18235294 Z M36.2897059,9.72647059 L36.2897059,9.72647059 C36.8112745,9.72647059 37.252451,9.60392157 37.6132353,9.35882353 C37.9759804,9.10980392 38.1573529,8.77352941 38.1573529,8.35 L38.1573529,8.35 C38.1573529,7.95392157 38.0602941,7.70980392 37.8661765,7.61764706 C37.6720588,7.5254902 37.3936275,7.47941176 37.0308824,7.47941176 L37.0308824,7.47941176 L35.9338235,7.47941176 C35.5455882,7.47941176 35.2583333,7.45686275 35.0720588,7.41176471 L35.0720588,7.41176471 C34.7367647,7.68431373 34.5691176,8.05 34.5691176,8.50882353 L34.5691176,8.50882353 C34.5691176,9.2872549 35.1426471,9.69313725 36.2897059,9.72647059 Z M41.9544118,10.35 L41.9544118,10.35 C41.5132353,10.35 41.1426471,10.2882353 40.8426471,10.1647059 L40.8426471,10.1647059 L41.0808824,9.17352941 C41.0985294,9.17352941 41.1073529,9.12941176 41.1073529,9.04117647 L41.1073529,9.04117647 C41.5132353,9.19803922 41.7651961,9.27647059 41.8632353,9.27647059 L41.8632353,9.27647059 C42.4181373,9.27647059 42.8416667,8.83137255 43.1338235,7.94117647 L43.1338235,7.94117647 L43.3191176,7.32058824 L40.4720588,0.185294118 L42.4455882,0.185294118 C43.4063725,2.85 43.9514706,4.38921569 44.0808824,4.80294118 C44.2083333,5.21862745 44.3338235,5.61176471 44.4573529,5.98235294 L44.4573529,5.98235294 L44.0338235,5.98235294 L44.6014706,3.95882353 L45.7808824,0.185294118 L47.6867647,0.185294118 L45.0779412,7.70294118 C44.9014706,8.20686275 44.6897059,8.65294118 44.4426471,9.04117647 C44.1955882,9.42745098 43.8720588,9.74215686 43.4720588,9.98529412 C43.070098,10.2284314 42.5642157,10.35 41.9544118,10.35 Z"></path>
                </g>
            </g>
        </g>
    </g>
</svg>