<svg t="1601457134550" class="icon" viewBox="0 0 1024 1024" version="1.1" xmlns="http://www.w3.org/2000/svg" p-id="5259" width="200" height="200"><path d="M512 0C272.725333 0 85.333333 177.834667 85.333333 404.821333c0 221.269333 385.962667 581.461333 402.346667 596.736L512 1024l24.234667-22.442667c16.469333-15.36 402.432-375.466667 402.432-596.736C938.666667 177.834667 751.274667 0 512 0z m0 926.890667C393.898667 812.544 156.416 552.277333 156.416 404.821333 156.416 214.186667 309.248 70.656 512 70.656s355.584 143.616 355.584 334.165333c0 147.370667-237.482667 407.722667-355.584 522.069334z m0-686.592a177.408 177.408 0 0 0-177.749333 176.554666c0 97.28 79.701333 176.64 177.749333 176.64a177.493333 177.493333 0 0 0 177.749333-176.64c0-97.28-79.786667-176.554667-177.749333-176.554666z m0 282.453333c-58.88 0-106.666667-47.530667-106.666667-105.898667 0-58.453333 47.786667-105.898667 106.666667-105.898666s106.666667 47.445333 106.666667 105.813333c0 58.453333-47.786667 105.984-106.666667 105.984z" fill="#999999" p-id="5260"></path></svg>